<mxfile host="app.diagrams.net" modified="2024-05-24T18:51:07.925Z" agent="Mozilla/5.0 (Windows NT 10.0; Win64; x64) AppleWebKit/537.36 (KHTML, like Gecko) Chrome/125.0.0.0 Safari/537.36" version="24.4.7" etag="SJIjCWD2Js0ATWdSD0CR" type="github">
  <diagram name="Страница — 1" id="K5FMsb9FUaHJ8em_u0mE">
    <mxGraphModel>
      <root>
        <mxCell id="0" />
        <mxCell id="1" parent="0" />
      </root>
    </mxGraphModel>
  </diagram>
</mxfile>
